<svg xmlns="http://www.w3.org/2000/svg" xmlns:xlink="http://www.w3.org/1999/xlink" width="135.386" height="99.78" viewBox="0 0 135.386 99.78">
  <defs>
    <style>
      .cls-1 {
        fill: #04105b;
      }

      .cls-2 {
        fill: url(#linear-gradient);
      }

      .cls-3, .cls-5 {
        fill: #fff;
      }

      .cls-4, .cls-8 {
        fill: none;
      }

      .cls-4 {
        stroke: #fff;
        stroke-width: 7px;
      }

      .cls-5 {
        font-size: 52px;
        font-family: SegoeUI, Segoe UI;
      }

      .cls-6, .cls-7 {
        stroke: none;
      }

      .cls-7 {
        fill: #04105b;
      }

      .cls-9 {
        filter: url(#_);
      }

      .cls-10 {
        filter: url(#Ellipse_17);
      }

      .cls-11 {
        filter: url(#fish-svgrepo-com_1_);
      }
    </style>
    <linearGradient id="linear-gradient" x1="0.5" x2="0.5" y2="1" gradientUnits="objectBoundingBox">
      <stop offset="0" stop-color="#fec11b"/>
      <stop offset="1" stop-color="#fff700"/>
    </linearGradient>
    <filter id="fish-svgrepo-com_1_">
      <feOffset dy="6" input="SourceAlpha"/>
      <feGaussianBlur stdDeviation="3" result="blur"/>
      <feFlood flood-color="#f70" flood-opacity="0.161" result="color"/>
      <feComposite operator="out" in="SourceGraphic" in2="blur"/>
      <feComposite operator="in" in="color"/>
      <feComposite operator="in" in2="SourceGraphic"/>
    </filter>
    <filter id="Ellipse_17" x="35.072" y="0.78" width="100" height="99" filterUnits="userSpaceOnUse">
      <feOffset dy="3" input="SourceAlpha"/>
      <feGaussianBlur stdDeviation="5" result="blur-2"/>
      <feFlood flood-color="#ff3400" flood-opacity="0.439"/>
      <feComposite operator="in" in2="blur-2"/>
      <feComposite in="SourceGraphic"/>
    </filter>
    <filter id="_" x="68.072" y="2.78" width="33" height="87" filterUnits="userSpaceOnUse">
      <feOffset dy="3" input="SourceAlpha"/>
      <feGaussianBlur stdDeviation="3" result="blur-3"/>
      <feFlood flood-color="#ff3400" flood-opacity="0.439"/>
      <feComposite operator="in" in2="blur-3"/>
      <feComposite in="SourceGraphic"/>
    </filter>
  </defs>
  <g id="Group_2857" data-name="Group 2857" transform="translate(-47.928 -84.22)">
    <g id="fish-svgrepo-com_1_2" data-name="fish-svgrepo-com (1)" class="cls-1" transform="translate(44.928 -34.78)">
      <path class="cls-6" d="M 84.92365264892578 214.7794952392578 C 76.05697631835938 214.7794952392578 67.66873168945312 212.2586822509766 59.2796516418457 207.0729675292969 C 52.13827133178711 202.6585388183594 46.08559417724609 197.0506134033203 40.23221206665039 191.6273651123047 C 40.14830017089844 191.5496063232422 40.06470108032227 191.4721527099609 39.98151779174805 191.3950958251953 C 33.70318603515625 196.9459075927734 24.15321922302246 203.9827270507812 21.56219291687012 205.7851867675781 C 20.24985313415527 206.6980590820312 18.62951278686523 207.1805419921875 16.87625312805176 207.1805419921875 C 14.64737319946289 207.1805419921875 12.32715320587158 206.3951416015625 10.5104923248291 205.0256958007812 C 8.279512405395508 203.3439636230469 6.999992847442627 200.9153442382812 6.999992847442627 198.3625640869141 C 6.999992847442627 197.5920257568359 7.122272968292236 196.3243255615234 8.029192924499512 192.764404296875 C 8.56031322479248 190.6795959472656 9.313952445983887 187.9887847900391 10.26917266845703 184.7666778564453 C 12.0997953414917 178.5917053222656 14.09828853607178 172.3746185302734 15.06980991363525 169.3897399902344 C 14.09828472137451 166.4048614501953 12.099778175354 160.1877593994141 10.26917266845703 154.0128173828125 C 9.313952445983887 150.7907257080078 8.56031322479248 148.0998992919922 8.029192924499512 146.0151062011719 C 7.122272968292236 142.4551849365234 6.999992847442627 141.1874847412109 6.999992847442627 140.4169464111328 C 6.999992847442627 137.8640594482422 8.279512405395508 135.4353942871094 10.51045322418213 133.7536926269531 C 12.32705307006836 132.3843383789062 14.64727306365967 131.5989532470703 16.8762321472168 131.5989532470703 C 18.62951278686523 131.5989532470703 20.2498722076416 132.0814666748047 21.56211280822754 132.9942779541016 C 24.15315628051758 134.7967376708984 33.70308303833008 141.8335113525391 39.98152160644531 147.3843841552734 C 40.06470489501953 147.3073120117188 40.14831924438477 147.2298431396484 40.23223114013672 147.152099609375 C 46.08563232421875 141.7288360595703 52.13831329345703 136.1209411621094 59.2796745300293 131.7065124511719 C 67.66875457763672 126.5208206176758 76.05697631835938 124 84.92365264892578 124 C 94.06959533691406 124 102.176872253418 125.5648574829102 109.0203323364258 128.6510925292969 C 115.1059341430664 131.3955841064453 120.2395324707031 135.3531341552734 124.2785110473633 140.4138641357422 C 127.6647720336914 144.6567230224609 130.2606353759766 149.6410217285156 131.9940338134766 155.2283020019531 C 133.3731536865234 159.6736602783203 134.1910095214844 164.5214385986328 134.3591766357422 169.2474975585938 C 134.4867706298828 172.8332214355469 134.184814453125 178.4636840820312 132.0217590332031 184.92431640625 C 131.0500946044922 187.8264617919922 129.7914886474609 190.6048736572266 128.2809143066406 193.1824188232422 C 126.622932434082 196.011474609375 124.6454544067383 198.6239013671875 122.403434753418 200.9471130371094 C 118.2494964599609 205.2514801025391 113.1599502563477 208.6081390380859 107.2761764526367 210.9238586425781 C 100.7757110595703 213.4822845458984 93.25523376464844 214.7794952392578 84.92365264892578 214.7794952392578 Z"/>
      <path class="cls-7" d="M 84.92364501953125 127.9999847412109 C 65.18569183349609 127.9999847412109 52.10540008544922 141.7356872558594 39.97278594970703 152.8338317871094 C 34.45423889160156 147.3582458496094 22.25283050537109 138.3474426269531 19.27794647216797 136.2779388427734 C 16.558349609375 134.3861999511719 10.99998474121094 136.6659851074219 10.99998474121094 140.4169158935547 C 10.99998474121094 143.4176788330078 16.51853179931641 160.9824371337891 19.27794647216797 169.3897399902344 C 16.51853179931641 177.7970428466797 10.99998474121094 195.3618011474609 10.99998474121094 198.3625640869141 C 10.99998474121094 202.1135101318359 16.55833435058594 204.393310546875 19.27794647216797 202.5015563964844 C 22.25283050537109 200.4320526123047 34.45423889160156 191.4212341308594 39.97278594970703 185.9456481933594 C 52.10540008544922 197.0437927246094 65.18569183349609 210.7794799804688 84.92364501953125 210.7794799804688 C 121.4979248046875 210.7794799804688 130.9106903076172 184.8186645507812 130.3617095947266 169.3897399902344 C 129.8126983642578 153.9608154296875 121.4979248046875 127.9999847412109 84.92364501953125 127.9999847412109 M 84.92364501953125 119.9999847412109 C 123.0314483642578 119.9999847412109 137.5119171142578 145.3662414550781 138.3566436767578 169.1052398681641 C 138.8094177246094 181.8301544189453 133.9215850830078 194.7720336914062 125.2816925048828 203.7248077392578 C 118.6538314819336 210.5926971435547 106.2719650268555 218.7794799804688 84.92364501953125 218.7794799804688 C 65.07273101806641 218.7794799804688 51.12399291992188 207.0838775634766 39.88484954833984 196.7526550292969 C 33.3729248046875 202.2013092041016 25.48050689697266 207.9320678710938 23.84648895263672 209.0687866210938 C 21.86044311523438 210.4503326416016 19.45021820068359 211.1805419921875 16.87625885009766 211.1805419921875 C 10.17497253417969 211.1805419921875 2.999984741210938 206.0299377441406 2.999984741210938 198.3625640869141 C 2.999984741210938 195.1855773925781 5.644027709960938 185.4432525634766 10.86195373535156 169.3897399902344 C 5.644027709960938 153.3362274169922 2.999984741210938 143.5939025878906 2.999984741210938 140.4169158935547 C 2.999984741210938 132.7495422363281 10.17497253417969 127.5989685058594 16.87625885009766 127.5989685058594 C 19.45012664794922 127.5989685058594 21.86028289794922 128.3291320800781 23.84619140625 129.7105102539062 C 25.48045349121094 130.8473968505859 33.37291717529297 136.5781860351562 39.88484954833984 142.0268249511719 C 51.12398529052734 131.6956024169922 65.07273101806641 119.9999847412109 84.92364501953125 119.9999847412109 Z"/>
    </g>
    <g id="fish-svgrepo-com_1_3" data-name="fish-svgrepo-com (1)" class="cls-1" transform="translate(44.928 -37.78)">
      <path class="cls-6" d="M 84.92366027832031 213.7795104980469 C 76.2481689453125 213.7795104980469 68.03193664550781 211.3075408935547 59.80548095703125 206.2223815917969 C 52.7467155456543 201.8590087890625 46.73026275634766 196.28466796875 40.91189956665039 190.8938598632812 C 40.60856246948242 190.6128234863281 40.30197525024414 190.3287658691406 39.99415588378906 190.0439147949219 C 33.79634094238281 195.6359558105469 23.66662216186523 203.1030426025391 20.99113464355469 204.9642639160156 C 19.84722518920898 205.7599792480469 18.42435264587402 206.1805419921875 16.87626266479492 206.1805419921875 C 14.86007976531982 206.1805419921875 12.75926208496094 205.4685516357422 11.11246204376221 204.2271728515625 C 10.20157051086426 203.5405426025391 9.470625877380371 202.7278747558594 8.93988037109375 201.8117370605469 C 8.316225051879883 200.7352142333984 8.000007629394531 199.5747375488281 8.000007629394531 198.3625640869141 C 8.000007629394531 197.6373901367188 8.000007629394531 195.9391937255859 11.22793483734131 185.0509033203125 C 13.12129783630371 178.6642913818359 15.19484996795654 172.2316131591797 16.12152862548828 169.3897399902344 C 15.19484615325928 166.5478515625 13.12128162384033 160.1151733398438 11.22793483734131 153.7285766601562 C 8.000007629394531 142.8403015136719 8.000007629394531 141.1421051025391 8.000007629394531 140.4169464111328 C 8.000007629394531 139.2047271728516 8.316206932067871 138.0442504882812 8.939825057983398 136.9677276611328 C 9.470552444458008 136.0515594482422 10.20151615142822 135.2388610839844 11.11242580413818 134.5522308349609 C 12.75915241241455 133.3108978271484 14.85998916625977 132.5989837646484 16.87624359130859 132.5989837646484 C 18.42435264587402 132.5989837646484 19.84724426269531 133.0195465087891 20.99106216430664 133.8152008056641 C 23.66656494140625 135.6764221191406 33.79623413085938 143.1434478759766 39.99416732788086 148.7355651855469 C 40.30198669433594 148.4507141113281 40.60858917236328 148.1666412353516 40.91191482543945 147.8855895996094 C 46.73028182983398 142.4947967529297 52.74673461914062 136.9204559326172 59.80550003051758 132.5570983886719 C 68.03195190429688 127.4719390869141 76.2481689453125 124.9999923706055 84.92366027832031 124.9999923706055 C 93.9268798828125 124.9999923706055 101.8958587646484 126.5351028442383 108.609245300293 129.5626831054688 C 114.5488815307617 132.2413177490234 119.5578231811523 136.1020660400391 123.4969329833984 141.0376434326172 C 126.8051376342773 145.1827087402344 129.3426208496094 150.0568237304688 131.0389404296875 155.5245971679688 C 132.3922119140625 159.8866119384766 133.1947479248047 164.6442108154297 133.3598327636719 169.2830505371094 C 133.4844665527344 172.7861328125 133.1889953613281 178.2882690429688 131.0735015869141 184.6068267822266 C 130.1237182617188 187.4436187744141 128.8939056396484 190.1587371826172 127.4181518554688 192.6767883300781 C 125.8002090454102 195.4375610351562 123.8709182739258 197.9864654541016 121.6838607788086 200.2527008056641 C 117.6301345825195 204.4532470703125 112.6594619750977 207.73046875 106.9099502563477 209.9933471679688 C 100.5266265869141 212.5056457519531 93.12937164306641 213.7795104980469 84.92366027832031 213.7795104980469 Z"/>
      <path class="cls-7" d="M 84.92364501953125 127.9999847412109 C 65.18568420410156 127.9999847412109 52.10539245605469 141.7357025146484 39.97277069091797 152.8338165283203 C 34.45424652099609 147.3582458496094 22.2528076171875 138.3474426269531 19.27793884277344 136.2779541015625 C 16.55833435058594 134.3861389160156 11 136.6659851074219 11 140.4169311523438 C 11 143.4176788330078 16.51853942871094 160.9824523925781 19.27793884277344 169.3897399902344 C 16.51853942871094 177.7970275878906 11 195.36181640625 11 198.362548828125 C 11 202.1135406494141 16.55838012695312 204.393310546875 19.27793884277344 202.5015563964844 C 22.2528076171875 200.4320526123047 34.45424652099609 191.4212341308594 39.97277069091797 185.9456634521484 C 52.10539245605469 197.0437774658203 65.18568420410156 210.7794799804688 84.92364501953125 210.7794799804688 C 121.497917175293 210.7794799804688 130.9107055664062 184.8186492919922 130.3617095947266 169.3897399902344 C 129.8126831054688 153.9608306884766 121.497917175293 127.9999847412109 84.92364501953125 127.9999847412109 M 84.92364501953125 121.9999847412109 C 121.6083755493164 121.9999847412109 135.5463714599609 146.3698425292969 136.35791015625 169.1763610839844 C 136.7917938232422 181.3697357177734 132.1131439208984 193.7658386230469 123.8425598144531 202.3359527587891 C 114.5934982299805 211.9199829101562 101.499267578125 216.7794799804688 84.92364501953125 216.7794799804688 C 65.04422760009766 216.7794799804688 51.66620635986328 204.930908203125 39.94269561767578 194.0851287841797 C 33.30483245849609 199.7801513671875 24.44000244140625 206.2195434570312 22.70435333251953 207.4269714355469 C 21.05506134033203 208.5742034912109 19.03981018066406 209.1805267333984 16.87625122070312 209.1805267333984 C 11.14083862304688 209.1805267333984 5 204.8335876464844 5 198.362548828125 C 5 194.5146331787109 9.735382080078125 179.3117828369141 12.96551513671875 169.3897399902344 C 9.735382080078125 159.4676971435547 5 144.2648468017578 5 140.4169311523438 C 5 133.9458923339844 11.14083862304688 129.5989685058594 16.87625122070312 129.5989685058594 C 19.03985595703125 129.5989685058594 21.05512237548828 130.2053070068359 22.70420837402344 131.3524475097656 C 24.43998718261719 132.5599365234375 33.30484771728516 138.9993438720703 39.94270324707031 144.6943511962891 C 51.66620635986328 133.8485717773438 65.04422760009766 121.9999847412109 84.92364501953125 121.9999847412109 Z"/>
    </g>
    <g data-type="innerShadowGroup">
      <path id="fish-svgrepo-com_1_4" data-name="fish-svgrepo-com (1)" class="cls-2" d="M130.362,169.39C129.813,153.961,121.5,128,84.924,128c-19.738,0-32.818,13.736-44.951,24.834-5.519-5.476-17.72-14.486-20.695-16.556-2.72-1.892-8.278.388-8.278,4.139,0,3,5.519,20.566,8.278,28.973C16.519,177.8,11,195.362,11,198.363c0,3.751,5.558,6.031,8.278,4.139,2.975-2.07,15.176-11.08,20.695-16.556,12.133,11.1,25.213,24.834,44.951,24.834C121.5,210.779,130.911,184.819,130.362,169.39Z" transform="translate(44.928 -38)"/>
      <g class="cls-11" transform="matrix(1, 0, 0, 1, 47.93, 84.22)">
        <path id="fish-svgrepo-com_1_5" data-name="fish-svgrepo-com (1)" class="cls-3" d="M130.362,169.39C129.813,153.961,121.5,128,84.924,128c-19.738,0-32.818,13.736-44.951,24.834-5.519-5.476-17.72-14.486-20.695-16.556-2.72-1.892-8.278.388-8.278,4.139,0,3,5.519,20.566,8.278,28.973C16.519,177.8,11,195.362,11,198.363c0,3.751,5.558,6.031,8.278,4.139,2.975-2.07,15.176-11.08,20.695-16.556,12.133,11.1,25.213,24.834,44.951,24.834C121.5,210.779,130.911,184.819,130.362,169.39Z" transform="translate(-3 -122.22)"/>
      </g>
    </g>
    <g id="Group_2714" data-name="Group 2714" transform="translate(98.025 96.794)">
      <g class="cls-10" transform="matrix(1, 0, 0, 1, -50.1, -12.57)">
        <g id="Ellipse_17-2" data-name="Ellipse 17" class="cls-4" transform="translate(50.07 12.78)">
          <ellipse class="cls-6" cx="35" cy="34.5" rx="35" ry="34.5"/>
          <ellipse class="cls-8" cx="35" cy="34.5" rx="31.5" ry="31"/>
        </g>
      </g>
      <g class="cls-9" transform="matrix(1, 0, 0, 1, -50.1, -12.57)">
        <text id="_2" data-name="!" class="cls-5" transform="translate(77.07 64.78)"><tspan x="0" y="0">!</tspan></text>
      </g>
    </g>
  </g>
</svg>
